<svg xmlns="http://www.w3.org/2000/svg" viewBox="0 0 200 200" fill="currentColor"><path d="M130.44 169.197c-24.86 0-45-20.141-45-44.996s20.14-45.004 45-45.004c24.852 0 45 20.149 45 45.004s-20.148 44.996-45 44.996zm25-39.245l-6.898-8.278l-12.714 10.595V99.234h-10.775v33.035l-12.714-10.595l-6.898 8.278c22.763 18.969 22.233 19.208 25 19.208c2.735 0 2.187-.198 24.999-19.208zm-3.564-71.164c-5.59 0-10.13-4.564-10.13-10.194c0-5.638 4.54-10.202 10.13-10.202c5.59 0 10.13 4.564 10.13 10.202c0 5.63-4.54 10.194-10.13 10.194zm24.784-26.91c-.337-3.277-2.721-5.78-5.959-6.254l-55.065-5.622c-2.023-.047-4.069.734-5.52 2.132l-87.932 85.027c-2.689 2.598-2.979 6.886-.4 9.594l58.405 61.259c2.58 2.708 6.845 2.59 9.526-.008l10.467-10.123a53.305 53.305 0 0 1-22.62-43.682c0-29.414 23.671-53.26 52.877-53.26c18.723 0 35.181 9.807 44.574 24.597l2.642-2.55c1.451-1.406 2.305-3.427 2.344-5.472l-3.339-55.638z"/></svg>