<svg xmlns="http://www.w3.org/2000/svg" viewBox="0 0 200 200" fill="currentColor"><path d="M69.3 166.67h61.4c-4.95 12.18-16.74 20.83-30.7 20.83s-25.75-8.65-30.7-20.83zm114.03-32.06v11.23c0 4.6-3.73 8.33-8.33 8.33H25a8.33 8.33 0 01-8.33-8.33v-11.23c0-6.77 3.65-12.82 9.27-16.59c4.46-2.99 7.4-8.08 7.4-13.85V93.55c0-31.06 21.27-57.08 50.01-64.48c.06-9.16 7.49-16.57 16.66-16.57h0c9.16 0 16.59 7.4 16.65 16.55c29.19 7.73 50.01 35.5 50.01 66.79v8.33c0 5.77 2.94 10.86 7.4 13.85c5.62 3.77 9.27 9.82 9.27 16.59z"/></svg>