<svg xmlns="http://www.w3.org/2000/svg" viewBox="0 0 200 200" fill="currentColor"><path d="M91.99 139.52V50.44a8.03 8.03 0 00-3.01-6.26L60.94 21.75a8.014 8.014 0 00-10.01 0L22.89 44.18a8.014 8.014 0 00-3.01 6.26v89.08c0 4.42 3.59 8.01 8.01 8.01h56.08c4.42 0 8.01-3.59 8.01-8.01zm-36.05-90.9c-3.98 0-7.21-3.23-7.21-7.21s3.23-7.21 7.21-7.21s7.21 3.23 7.21 7.21s-3.23 7.21-7.21 7.21zM176.1 72.43a8.017 8.017 0 00-7.08-7.08l-35.69-3.97a8.01 8.01 0 00-6.55 2.3L104 86.46v53.06c0 10.62-8.33 19.25-18.79 19.9l10.91 10.91l7.32 7.32a8.01 8.01 0 0011.33 0l43.32-43.32l19.67-19.67a8.01 8.01 0 002.3-6.55l-3.97-35.69zm-12.34 15.45a7.206 7.206 0 01-10.2 0a7.206 7.206 0 010-10.2a7.206 7.206 0 0110.2 0a7.206 7.206 0 010 10.2z"/></svg>