<svg xmlns="http://www.w3.org/2000/svg" viewBox="0 0 200 200" fill="currentColor"><path d="M150 110c-22.091 0-40 17.909-40 40s17.909 40 40 40s40-17.909 40-40s-17.909-40-40-40zm-23.25 48.524l6.066-7.849l8.741 6.688L165.925 131l7.325 6.701c-35.158 38.037-26.63 36.023-46.5 20.823zM56.646 56.354h27.203v15c-42.169 0-50.569 2.5-50.569-7.5V21h15v22.672C96.286 1.138 173.508 32.229 177.355 96.626a59.513 59.513 0 0 0-15.688-5.478c-8.166-49.03-68.755-69.207-105.021-34.794zm40.533 122.079c-43.898-1.615-77.604-38.829-74.483-82.475l14.962 1.07c-2.274 31.801 19.86 59.967 51.485 65.516c5.488.963-.922-.685 8.036 15.889z"/></svg>