<svg xmlns="http://www.w3.org/2000/svg" viewBox="0 0 200 200" fill="currentColor"><path d="M179.718 93.527c-3.066-38.837-34.409-70.18-73.246-73.246c-49.058-4.088-90.28 37.135-86.192 86.192c3.066 38.837 34.408 70.18 73.246 73.246c49.399 4.088 90.28-37.134 86.192-86.192zm-78.356 28.957c-2.044 2.726-5.11 4.77-7.495 7.155c-5.791 6.473-7.154 16.353-11.923 23.506c-3.887 5.183-3.407 6.322-3.407 11.584c0 1.626-3.846-.521-4.088-.682c-3.371-1.683-.513-11.119-11.242-29.979c-6.16-10.829-8.94-8.767-9.88-11.584c-.713-1.425 3.716-16.189-10.561-26.572c-5.774-4.33-2.907-4.111-4.77-7.836c-1.286-2.574-5.451-3.256-5.451-5.792c9.213-37.394 48.561-52.436 50.42-48.717c3.216 5.359 6.214 13.123 3.407 18.738c-4.575 9.149-20.144 7.659-35.09 29.638c-.105.105-1.714 2.366-2.725.34c-1.022-.68-2.044-1.362-2.725-2.385c-.341-.34-1.363.341-1.363 1.022c-2.524 8.834 6.546 13.019 7.154 13.627c1.363 1.703.042 4.081.341 6.132c.396 2.719 3.748 4.429 6.814 4.088c4.961-.551 15.584-8.399 26.573-.341c3.804 2.377 9.778 9.636 16.012 8.858c3.577.003 2.096 6.265-.001 9.2zM168.475 100c-5.014 5.015-6.411 13.211-11.583 19.419c-6.554 7.863-4.251 7.628-5.11 11.923c0 .682-1.363.682-2.044.342c-9.59-14.386-4.728-26.63-14.309-31.684c-6.367-3.358-16.32.723-21.122-5.451c-4.45-5.934-2.229-21.293 9.198-27.254c.731-.487 7.012-2.614 5.451-8.858c0-2.102-6.363 1.229-7.154 1.704c-6.232 2.074 5.86-23.508-2.044-23.508c-10.225 0-9.88.142-9.88-.34c3.102-1.861 4.49-4.429 5.791-4.429c20.484 4.55 37.815 20.579 37.815 23.848c1.133 4.527-5.713 10.902 6.132 10.902c4.249 0 12.898 29.348 8.859 33.386z"/></svg>