<svg xmlns="http://www.w3.org/2000/svg" viewBox="0 0 200 200" fill="currentColor"><path fill-rule="evenodd" clip-rule="evenodd" d="M99.828 20.379c36.15 0 65.455 29.305 65.455 65.455c0 28.827-18.636 53.302-44.517 62.034l.887-.303l.003 32.814l-21.818-14.545l-21.818 14.545l-.01-32.819l-.257-.088c-25.288-9.058-43.379-33.235-43.379-61.639c0-36.149 29.305-65.454 65.454-65.454zm0 14.545c-28.116 0-50.909 22.793-50.909 50.909s22.793 50.909 50.909 50.909s50.909-22.793 50.909-50.909s-22.792-50.909-50.909-50.909zM97.87 58.012c.706-1.505 2.601-1.672 3.572-.502l.317.502l7.323 15.534a2.15 2.15 0 001.11 1.098l.508.149l16.377 2.495c1.584.241 2.317 2.117 1.517 3.443l-.325.418l-11.779 12.088a2.242 2.242 0 00-.647 1.437l.022.553l2.81 17.048c.258 1.674-1.243 2.98-2.712 2.556l-.438-.18l-14.646-8.049a2.033 2.033 0 00-1.525-.2l-.49.2l-14.646 8.049c-1.445.81-3.124-.295-3.183-1.886l.033-.49l2.782-17.048a2.352 2.352 0 00-.295-1.554l-.329-.436l-11.837-12.088c-1.15-1.176-.69-3.146.697-3.723l.495-.138l16.377-2.495a2.24 2.24 0 001.329-.794l.289-.454l7.294-15.533z"/></svg>