<svg xmlns="http://www.w3.org/2000/svg" viewBox="0 0 200 200" fill="currentColor"><path d="M164.17 20H35.83A15.82 15.82 0 0020 35.83v95.84c0 9.16 7.5 15.83 16.67 15.83H60L78.33 180l19.17-32.5h66.67A15.82 15.82 0 00180 131.67V35.83C180 27.5 172.5 20 164.17 20zM122.5 45.83a10 10 0 11-10 10c.83-5.83 5-10 10-10zm-45 0a10 10 0 11-10 10a9.63 9.63 0 0110-10zm64.17 47.5c-5.84 17.5-22.5 29.17-41.67 29.17a45 45 0 01-41.67-29.17c-.83-2.5 0-5 3.34-6.66c2.5-.84 5 0 6.66 3.33a34.72 34.72 0 0065 0c.84-2.5 3.34-4.17 6.67-3.33c.83.83 2.5 4.16 1.67 6.66z"/></svg>